<svg width="24" height="25" viewBox="0 0 24 25" fill="none" xmlns="http://www.w3.org/2000/svg">
<path fill-rule="evenodd" clip-rule="evenodd" d="M1.49951 12.8499C1.49951 12.6509 1.57853 12.4602 1.71918 12.3195C1.85984 12.1789 2.0506 12.0999 2.24951 12.0999H19.939L15.2185 7.38085C15.1488 7.31112 15.0935 7.22834 15.0557 7.13723C15.018 7.04612 14.9986 6.94847 14.9986 6.84985C14.9986 6.75124 15.018 6.65359 15.0557 6.56248C15.0935 6.47137 15.1488 6.38859 15.2185 6.31885C15.2882 6.24912 15.371 6.19381 15.4621 6.15607C15.5532 6.11833 15.6509 6.09891 15.7495 6.09891C15.8481 6.09891 15.9458 6.11833 16.0369 6.15607C16.128 6.19381 16.2108 6.24912 16.2805 6.31885L22.2805 12.3189C22.3504 12.3885 22.4058 12.4713 22.4436 12.5624C22.4814 12.6535 22.5009 12.7512 22.5009 12.8499C22.5009 12.9485 22.4814 13.0462 22.4436 13.1373C22.4058 13.2284 22.3504 13.3112 22.2805 13.3809L16.2805 19.3809C16.2108 19.4506 16.128 19.5059 16.0369 19.5436C15.9458 19.5814 15.8481 19.6008 15.7495 19.6008C15.6509 19.6008 15.5532 19.5814 15.4621 19.5436C15.371 19.5059 15.2882 19.4506 15.2185 19.3809C15.1488 19.3111 15.0935 19.2283 15.0557 19.1372C15.018 19.0461 14.9986 18.9485 14.9986 18.8499C14.9986 18.7512 15.018 18.6536 15.0557 18.5625C15.0935 18.4714 15.1488 18.3886 15.2185 18.3189L19.939 13.5999H2.24951C2.0506 13.5999 1.85984 13.5208 1.71918 13.3802C1.57853 13.2395 1.49951 13.0488 1.49951 12.8499Z" fill="#FFA502"/>
</svg>
